<?xml version="1.0" standalone="no"?>
<!DOCTYPE svg PUBLIC "-//W3C//DTD SVG 20010904//EN"
 "http://www.w3.org/TR/2001/REC-SVG-20010904/DTD/svg10.dtd">
<svg version="1.0" xmlns="http://www.w3.org/2000/svg"
 width="4720.000000pt" height="3280.000000pt" viewBox="0 0 4720.000000 3280.000000"
 preserveAspectRatio="xMidYMid meet">

<g transform="translate(0.000000,3280.000000) scale(0.100000,-0.100000)"
fill="#eee" stroke="none">
<path d="M24425 31193 c-27 -6 -87 -74 -136 -153 -22 -36 -45 -74 -52 -84 -7
-11 -15 -25 -20 -30 -11 -17 -64 -95 -103 -153 -19 -29 -37 -67 -41 -85 -3
-18 -36 -71 -72 -118 -36 -47 -82 -115 -101 -151 -19 -37 -56 -99 -83 -138
-26 -39 -53 -83 -59 -99 -7 -15 -22 -40 -33 -57 -12 -16 -35 -57 -51 -90 -15
-33 -38 -73 -50 -90 -22 -31 -64 -120 -64 -137 0 -5 -11 -24 -24 -41 -21 -29
-46 -78 -76 -147 -5 -14 -19 -38 -30 -55 -10 -16 -26 -44 -35 -62 -9 -17 -25
-39 -36 -49 -10 -9 -19 -26 -19 -37 0 -11 -13 -43 -29 -71 -16 -28 -33 -69
-36 -91 -4 -22 -19 -55 -33 -74 -14 -18 -29 -53 -33 -77 -5 -25 -20 -61 -34
-81 -14 -21 -25 -51 -25 -67 0 -16 -13 -51 -30 -78 -16 -26 -30 -54 -30 -62 0
-7 -9 -21 -20 -31 -12 -11 -20 -31 -20 -51 0 -18 -5 -36 -10 -39 -6 -4 -22
-29 -35 -56 -14 -27 -29 -49 -34 -49 -5 0 -11 -22 -15 -49 -4 -33 -20 -70 -51
-117 -32 -48 -45 -78 -45 -103 0 -32 -10 -53 -71 -142 -10 -15 -21 -50 -25
-78 -3 -28 -13 -56 -20 -62 -8 -6 -14 -17 -14 -23 0 -7 -13 -27 -30 -46 -20
-24 -29 -46 -30 -70 0 -19 -13 -61 -29 -93 -16 -32 -32 -73 -35 -92 -4 -18
-13 -38 -21 -45 -8 -7 -15 -19 -15 -26 0 -8 -12 -33 -26 -56 -15 -23 -29 -62
-32 -86 -5 -44 -58 -160 -87 -188 -8 -9 -15 -31 -15 -49 0 -21 -9 -45 -26 -65
-18 -21 -29 -48 -34 -88 -4 -31 -19 -79 -32 -107 -14 -27 -28 -70 -31 -95 -3
-25 -18 -67 -32 -94 -15 -27 -29 -72 -32 -100 -3 -28 -11 -54 -16 -57 -15 -11
-39 -79 -44 -129 -3 -25 -11 -52 -18 -60 -26 -31 -44 -84 -51 -143 -4 -34 -10
-66 -14 -72 -4 -5 -11 -24 -14 -42 -4 -17 -14 -37 -22 -44 -8 -6 -14 -29 -14
-53 -1 -22 -7 -52 -15 -66 -8 -14 -14 -47 -15 -73 0 -31 -5 -49 -14 -53 -18
-7 -43 -76 -52 -144 -3 -30 -13 -64 -20 -75 -8 -11 -14 -29 -14 -41 0 -12 -7
-27 -15 -34 -12 -10 -15 -36 -15 -114 0 -74 -4 -107 -15 -122 -10 -13 -14 -46
-15 -110 0 -72 -3 -93 -15 -98 -11 -4 -15 -22 -15 -70 0 -36 -6 -85 -14 -108
-8 -24 -17 -65 -21 -93 -3 -27 -13 -69 -21 -93 -8 -23 -14 -58 -14 -76 0 -19
-7 -50 -15 -69 -11 -27 -15 -77 -15 -202 0 -113 -4 -173 -12 -188 -8 -13 -15
-85 -19 -177 -4 -85 -12 -203 -20 -263 -11 -91 -11 -114 1 -150 22 -65 27
-1135 6 -1176 -13 -23 -15 -98 -17 -437 -1 -345 -3 -415 -17 -449 -14 -36 -16
-406 -19 -3690 l-4 -3649 -24 -51 c-43 -88 -91 -171 -149 -255 -31 -45 -56
-84 -56 -86 0 -3 -11 -17 -25 -32 -14 -15 -25 -32 -25 -39 0 -7 -4 -13 -8 -13
-5 0 -22 -19 -39 -43 -86 -119 -349 -381 -525 -522 -110 -88 -418 -305 -433
-305 -3 0 -28 -15 -57 -34 -193 -122 -530 -280 -763 -358 -49 -16 -97 -32
-105 -36 -103 -39 -474 -128 -615 -146 -22 -3 -80 -11 -130 -18 -120 -17 -593
-17 -700 0 -52 8 -91 9 -111 3 -24 -7 -74 -1 -200 24 -459 90 -779 193 -1109
355 -726 356 -1282 926 -1678 1716 -420 840 -582 1861 -471 2979 108 1095 504
2048 1161 2795 616 700 1346 1143 2218 1345 821 190 1817 155 2702 -95 173
-49 478 -153 628 -214 106 -43 110 -44 113 -23 7 39 -36 151 -88 232 -11 17
-23 37 -27 47 -18 38 -135 178 -228 274 -55 56 -125 132 -155 168 -30 36 -62
68 -70 72 -8 3 -37 32 -65 64 -27 33 -55 59 -60 60 -6 0 -42 29 -80 65 -38 36
-75 65 -82 65 -7 0 -31 20 -53 44 -22 24 -52 47 -65 50 -14 4 -40 21 -58 39
-65 62 -95 87 -105 87 -10 0 -136 89 -163 115 -9 8 -23 15 -32 15 -9 0 -19 5
-22 11 -4 5 -17 15 -28 20 -37 17 -69 37 -76 47 -9 14 -139 82 -157 82 -9 0
-33 13 -53 28 -43 33 -122 72 -145 72 -10 0 -24 6 -31 13 -31 27 -43 35 -72
50 -44 23 -136 57 -153 57 -9 0 -21 5 -27 11 -16 16 -124 59 -148 59 -11 0
-29 7 -39 15 -11 8 -36 15 -57 15 -24 0 -39 5 -43 15 -3 10 -19 15 -44 15 -23
0 -45 6 -52 15 -7 8 -29 15 -49 15 -20 0 -48 6 -62 14 -14 7 -43 16 -65 20
-21 5 -44 12 -50 17 -7 5 -36 13 -65 16 -30 4 -60 12 -67 20 -7 7 -30 13 -51
13 -20 0 -42 5 -47 10 -6 6 -40 13 -77 17 -37 3 -72 12 -78 19 -8 10 -36 14
-92 14 -56 0 -85 4 -96 14 -10 9 -47 16 -100 19 -46 3 -87 10 -90 15 -3 6 -53
13 -110 16 -58 4 -111 11 -118 18 -8 6 -39 9 -82 6 -38 -3 -75 -2 -82 2 -8 5
-63 10 -124 13 -60 3 -118 8 -127 12 -23 9 -234 0 -358 -15 -52 -7 -104 -12
-115 -11 -11 0 -45 -4 -75 -9 -30 -5 -93 -12 -139 -15 -47 -3 -107 -12 -135
-20 -27 -8 -68 -15 -92 -15 -23 0 -61 -7 -84 -15 -23 -8 -61 -15 -84 -15 -24
0 -65 -6 -92 -14 -27 -8 -74 -17 -104 -21 -30 -4 -89 -16 -130 -28 -41 -11
-102 -26 -135 -32 -33 -7 -99 -24 -148 -39 -48 -14 -95 -26 -105 -26 -10 0
-22 -4 -27 -9 -6 -4 -41 -18 -80 -31 -124 -40 -190 -63 -200 -70 -5 -4 -35
-15 -65 -24 -67 -21 -157 -62 -165 -76 -3 -6 -14 -10 -23 -10 -20 0 -112 -37
-167 -67 -77 -42 -176 -88 -215 -99 -13 -3 -30 -12 -37 -18 -33 -29 -45 -37
-85 -57 -85 -41 -104 -53 -178 -113 -373 -298 -815 -761 -1140 -1191 -1060
-1407 -1541 -3182 -1419 -5240 109 -1849 725 -3332 1854 -4460 1214 -1215
2898 -1915 5035 -2094 530 -45 821 -49 971 -15 37 8 120 21 185 29 186 21 574
97 692 134 33 11 88 25 122 32 33 6 63 16 66 20 3 5 14 9 24 9 20 0 144 37
255 77 39 14 88 31 110 38 120 39 315 125 440 195 33 18 69 38 80 44 11 6 22
14 25 17 9 12 84 49 98 49 22 0 169 108 239 175 60 56 102 84 104 67 0 -4 2
-119 4 -257 2 -137 6 -337 10 -442 4 -154 2 -206 -10 -258 -13 -59 -15 -469
-15 -3626 0 -3157 2 -3559 15 -3559 8 0 15 3 15 8 1 4 36 45 80 92 44 47 80
90 80 95 0 6 23 29 50 53 28 24 50 49 50 56 0 7 12 23 26 37 14 13 32 35 39
49 7 14 36 47 64 75 27 27 53 61 56 74 3 13 26 44 51 69 24 25 44 54 44 64 0
10 16 35 35 57 19 21 35 43 35 48 0 5 13 23 30 39 16 16 30 34 30 41 0 7 14
28 30 46 17 19 30 39 30 44 0 5 13 27 30 49 16 21 30 45 30 52 0 6 8 20 18 30
10 10 33 42 51 72 18 30 42 63 52 73 11 10 19 31 19 47 0 15 4 30 9 32 13 5
81 96 81 109 0 18 61 113 81 127 12 8 19 25 19 44 0 31 37 90 72 116 13 9 18
26 18 58 0 32 6 49 20 61 11 10 20 22 20 28 0 7 11 22 25 35 14 14 28 40 31
61 4 21 13 40 20 43 8 3 14 16 14 29 0 13 13 41 30 63 16 21 30 48 30 59 0 11
9 28 20 38 12 10 20 29 20 47 0 18 12 47 30 72 16 22 30 53 30 68 0 16 6 30
14 33 7 3 16 25 20 49 4 29 17 56 36 77 23 24 30 42 30 72 0 28 9 51 30 81 17
23 30 54 30 70 0 16 6 31 15 34 8 4 15 18 15 33 0 14 7 35 15 45 8 11 15 31
15 46 0 14 8 30 20 38 13 8 20 23 20 43 0 19 11 45 30 69 23 29 30 48 30 82 0
34 6 50 29 75 21 23 30 44 33 81 3 28 12 58 21 67 10 9 17 25 17 34 0 10 7 24
15 31 8 7 15 27 15 45 0 18 7 38 15 45 9 7 15 29 15 52 0 25 5 41 15 44 9 4
15 19 15 39 0 19 7 40 15 49 8 8 15 26 15 39 0 14 6 27 14 30 9 4 17 26 21 54
3 26 13 60 21 75 8 14 14 33 14 41 0 8 7 20 15 27 8 7 15 25 15 40 0 33 37
120 50 120 6 0 10 19 10 43 0 24 7 52 15 63 8 10 15 30 15 44 0 14 9 31 20 38
14 8 20 23 20 50 0 20 7 46 15 56 8 11 15 39 15 62 0 25 6 47 15 54 8 7 15 23
15 35 0 13 7 25 15 29 11 4 15 20 15 54 0 32 5 54 15 62 8 7 15 23 15 36 0 13
9 33 20 44 14 14 20 34 20 63 0 23 7 51 15 61 8 11 15 34 15 52 0 17 7 37 15
44 8 7 15 29 15 50 0 24 5 40 15 44 10 3 15 19 15 46 0 27 5 43 15 46 10 4 15
20 15 49 0 25 6 47 15 55 8 7 14 22 14 34 0 47 14 116 27 127 9 7 14 32 14 64
0 38 4 55 15 59 12 4 15 25 15 95 0 67 3 90 14 94 13 5 25 69 26 135 0 12 5
22 10 22 6 0 10 20 10 44 0 24 6 48 13 55 8 6 14 36 15 78 1 48 7 71 17 79 10
8 16 27 15 50 -1 63 12 148 24 156 8 5 7 11 -2 20 -16 16 -15 46 3 64 12 12
15 44 16 137 1 67 3 165 4 217 2 52 5 226 8 385 3 160 9 298 13 308 3 10 -1
79 -9 155 -13 109 -15 219 -13 537 2 220 9 474 14 565 6 91 13 345 17 565 3
220 8 461 11 536 4 114 2 138 -11 149 -13 11 -15 359 -15 3362 0 2827 2 3355
14 3381 7 18 24 61 36 97 37 106 214 479 254 535 12 17 32 50 45 75 13 25 63
103 110 175 65 99 114 158 206 250 125 125 186 182 270 250 27 22 65 55 84 72
20 18 42 33 49 33 6 0 12 4 12 8 0 5 25 26 56 48 30 21 61 44 67 49 19 17 238
160 277 181 19 10 37 21 40 24 8 8 68 40 225 120 221 112 460 203 725 276 60
16 334 74 370 79 25 3 72 10 105 15 108 19 198 25 330 24 273 -2 863 -62 1090
-111 39 -8 84 -17 100 -20 383 -63 801 -252 1166 -529 161 -122 290 -237 464
-415 291 -299 479 -560 665 -929 310 -616 474 -1309 521 -2200 20 -393 2 -937
-46 -1327 -123 -1012 -464 -1883 -1003 -2563 -772 -973 -1811 -1503 -3137
-1600 -181 -13 -653 -13 -826 0 -481 37 -1030 153 -1470 310 -62 23 -117 39
-123 37 -6 -2 17 -32 52 -66 34 -34 62 -68 62 -74 0 -7 52 -64 115 -127 63
-63 115 -123 115 -132 0 -9 9 -20 20 -23 11 -4 42 -26 67 -51 26 -24 50 -44
54 -44 6 0 13 -5 79 -60 17 -13 30 -31 30 -40 0 -19 36 -46 107 -80 38 -19 52
-31 55 -49 2 -19 20 -33 75 -63 40 -21 84 -50 99 -63 30 -28 156 -95 178 -95
9 0 22 -14 31 -30 9 -16 23 -30 31 -30 9 0 28 -6 42 -14 15 -8 38 -19 52 -25
14 -6 39 -20 55 -31 17 -11 37 -23 45 -26 8 -4 33 -15 55 -25 22 -10 52 -21
67 -24 14 -4 34 -15 44 -26 9 -10 23 -19 30 -19 8 0 33 -9 56 -19 24 -11 63
-27 88 -36 25 -9 59 -23 75 -30 57 -24 110 -44 135 -50 14 -3 34 -10 45 -15
94 -42 116 -50 129 -50 8 0 30 -6 48 -14 57 -23 101 -38 158 -52 100 -24 145
-37 155 -45 6 -4 28 -10 50 -14 46 -7 136 -32 180 -50 17 -7 53 -16 80 -20 28
-3 95 -16 150 -27 55 -11 141 -24 190 -28 50 -5 128 -14 175 -20 47 -6 164
-15 260 -20 96 -5 222 -12 280 -15 57 -3 145 -11 195 -17 49 -6 115 -12 145
-13 84 -3 316 13 379 25 49 10 137 23 301 46 25 3 63 12 85 20 22 8 83 24 135
35 52 11 111 26 130 34 19 7 66 16 103 18 38 3 74 10 80 16 6 6 20 11 31 11
12 0 32 6 47 13 14 8 51 17 83 21 32 3 68 13 79 21 12 8 36 15 53 15 17 0 37
6 43 14 7 8 34 17 61 21 28 4 52 11 55 15 3 5 24 11 47 15 23 4 61 18 84 31
24 13 53 24 66 24 13 1 41 9 63 20 22 11 51 19 64 20 14 0 32 7 41 15 9 8 45
22 80 31 36 9 75 22 87 30 12 8 33 14 45 14 13 0 37 14 55 30 18 17 40 30 50
30 10 0 35 9 56 20 20 11 47 20 59 20 13 0 41 16 63 35 22 19 45 38 50 43 15
12 79 37 88 34 14 -4 61 25 103 65 41 38 156 103 184 103 8 0 38 22 65 50 28
27 55 50 61 50 6 0 17 7 24 15 7 8 22 15 34 15 14 0 53 30 104 80 45 44 90 80
100 80 9 0 37 23 62 50 25 28 49 50 54 50 14 0 88 61 154 127 34 35 70 63 80
63 9 0 52 36 95 80 43 44 80 80 83 80 4 0 31 27 128 133 14 15 29 27 33 27 13
1 126 156 204 280 528 840 861 1763 1008 2795 66 465 85 755 85 1305 0 540
-20 872 -80 1340 -173 1355 -623 2518 -1347 3482 -338 450 -830 941 -1271
1270 -783 585 -1712 976 -2746 1157 -430 76 -946 124 -1275 120 -82 -1 -217
-1 -300 0 -144 2 -287 -10 -505 -43 -52 -8 -113 -18 -135 -21 -43 -6 -159 -27
-290 -51 -230 -44 -663 -152 -815 -204 -122 -42 -258 -94 -370 -142 -98 -42
-320 -153 -320 -160 0 -5 -6 -8 -13 -8 -7 0 -36 -16 -66 -35 -29 -19 -55 -35
-57 -35 -7 0 -63 -40 -115 -82 -26 -21 -51 -38 -55 -38 -5 0 -15 -9 -22 -20
-7 -11 -19 -20 -27 -20 -8 0 -19 -9 -25 -20 -6 -11 -17 -20 -25 -20 -8 0 -19
-9 -25 -20 -6 -11 -15 -20 -20 -20 -5 0 -54 -44 -110 -97 -104 -100 -204 -214
-253 -290 -15 -24 -29 -43 -31 -43 -2 0 -2 21 0 47 7 84 13 519 14 848 0 176
-1 1999 -3 4050 l-2 3730 -35 2 c-19 0 -44 -1 -55 -4z"/>
</g>
</svg>
